<?xml version="1.0" standalone="no"?>
<!DOCTYPE svg PUBLIC "-//W3C//DTD SVG 20010904//EN"
 "http://www.w3.org/TR/2001/REC-SVG-20010904/DTD/svg10.dtd">
<svg version="1.0" xmlns="http://www.w3.org/2000/svg"
 width="200.000000pt" height="200.000000pt" viewBox="0 0 200.000000 200.000000"
 preserveAspectRatio="xMidYMid meet">
<g transform="translate(0.000000,200.000000) scale(0.100000,-0.100000)"
fill="#000000" stroke="none">
<path d="M1063 1638 c-41 -45 -47 -70 -51 -206 -5 -148 4 -176 39 -134 27 34
69 175 76 255 5 56 3 71 -12 87 -23 25 -27 25 -52 -2z m52 -39 c8 -35 -8 -117
-41 -221 -27 -82 -39 -95 -50 -52 -9 37 2 223 15 259 23 59 65 67 76 14z"/>
<path d="M855 1626 c-31 -32 -40 -99 -26 -200 20 -143 38 -181 69 -143 18 21
42 163 42 247 0 67 -3 83 -20 100 -26 26 -36 25 -65 -4z m63 -26 c23 -44 -5
-297 -34 -307 -17 -6 -36 80 -42 189 -4 81 -2 102 12 123 21 31 45 29 64 -5z"/>
<path d="M1227 1518 c-33 -44 -59 -97 -91 -186 -30 -85 -32 -114 -10 -137 16
-15 19 -14 50 16 19 18 55 76 81 128 39 79 48 105 48 151 0 52 -1 55 -27 58
-20 2 -32 -5 -51 -30z m64 1 c15 -29 -3 -95 -52 -189 -68 -131 -109 -163 -109
-86 0 80 103 296 141 296 5 0 13 -9 20 -21z"/>
<path d="M1667 1310 c13 -88 7 -239 -11 -310 -58 -229 -238 -421 -461 -490
-210 -65 -452 -18 -644 125 -56 41 -61 43 -43 18 54 -76 219 -170 350 -199
109 -24 261 -16 371 21 323 109 532 455 467 775 -21 101 -40 141 -29 60z"/>
<path d="M561 1292 c-9 -17 -6 -32 13 -76 25 -56 48 -76 88 -76 60 0 65 63 11
120 -46 49 -96 63 -112 32z"/>
<path d="M1355 1238 c-42 -23 -115 -102 -115 -125 0 -34 35 -30 106 12 78 47
108 80 94 106 -12 21 -53 25 -85 7z"/>
<path d="M852 1230 c-27 -11 -42 -46 -50 -125 l-7 -60 -44 -14 -43 -14 5 -43
c8 -71 78 -145 153 -160 27 -5 30 -3 47 46 11 30 35 68 58 91 22 22 32 36 21
30 -32 -17 -81 -82 -94 -123 -14 -49 -43 -53 -34 -5 3 17 8 75 10 127 2 52 2
73 0 45 -6 -78 -25 -184 -34 -190 -4 -3 -26 13 -48 35 -62 59 -82 150 -34 150
11 0 31 9 46 21 21 17 26 29 26 67 0 59 27 114 60 123 19 5 20 7 5 7 -11 1
-30 -3 -43 -8z"/>
</g>
</svg>
