<?xml version="1.0" encoding="UTF-8" standalone="no"?>
<!-- Creator: CorelDRAW X7 -->

<svg
   xmlns:dc="http://purl.org/dc/elements/1.1/"
   xmlns:cc="http://creativecommons.org/ns#"
   xmlns:rdf="http://www.w3.org/1999/02/22-rdf-syntax-ns#"
   xmlns:svg="http://www.w3.org/2000/svg"
   xmlns="http://www.w3.org/2000/svg"
   xmlns:sodipodi="http://sodipodi.sourceforge.net/DTD/sodipodi-0.dtd"
   xmlns:inkscape="http://www.inkscape.org/namespaces/inkscape"
   xml:space="preserve"
   width="600"
   height="600"
   version="1.1"
   style="clip-rule:evenodd;fill-rule:evenodd;image-rendering:optimizeQuality;shape-rendering:geometricPrecision;text-rendering:geometricPrecision"
   viewBox="0 0 6666.7239 6666.892"
   id="svg4689"
   inkscape:version="0.91 r13725"
   sodipodi:docname="new-hand-icon-inkscape-export-try3.svg"><metadata
     id="metadata4779"><rdf:RDF><cc:Work
         rdf:about=""><dc:format>image/svg+xml</dc:format><dc:type
           rdf:resource="http://purl.org/dc/dcmitype/StillImage" /><dc:title></dc:title></cc:Work></rdf:RDF></metadata><sodipodi:namedview
     pagecolor="#ffffff"
     bordercolor="#666666"
     borderopacity="1"
     objecttolerance="10"
     gridtolerance="10"
     guidetolerance="10"
     inkscape:pageopacity="0"
     inkscape:pageshadow="2"
     inkscape:window-width="1600"
     inkscape:window-height="838"
     id="namedview4777"
     showgrid="false"
     units="px"
     inkscape:zoom="0.27367035"
     inkscape:cx="526.18049"
     inkscape:cy="372.04741"
     inkscape:window-x="-8"
     inkscape:window-y="-8"
     inkscape:window-maximized="1"
     inkscape:current-layer="svg4689" /><defs
     id="defs4691"><style
       type="text/css"
       id="style4693"><![CDATA[
    .fil3 {fill:none}
    .fil5 {fill:#2863B1}
    .fil7 {fill:white}
    .fil4 {fill:#2863B1;fill-rule:nonzero}
    .fil6 {fill:#FFFF36;fill-opacity:0.309804}
    .fil1 {fill:url(#id2)}
    .fil0 {fill:url(#id3)}
    .fil2 {fill:url(#id4)}
   ]]></style><mask
       id="id0"><linearGradient
         id="id1"
         gradientUnits="userSpaceOnUse"
         x1="8391.8799"
         y1="5742.3701"
         x2="8380.1904"
         y2="1500.14"><stop
           offset="0"
           style="stop-opacity:0; stop-color:white"
           id="stop4697" /><stop
           offset="0.290196"
           style="stop-opacity:-127.353; stop-color:white"
           id="stop4699" /><stop
           offset="1"
           style="stop-opacity:0.701961; stop-color:white"
           id="stop4701" /></linearGradient><rect
         style="fill:url(#id1)"
         x="3452"
         y="1319"
         width="4792"
         height="3219"
         id="rect4703" /></mask><linearGradient
       id="id2"
       gradientUnits="userSpaceOnUse"
       x1="5846.4199"
       y1="1049.47"
       x2="5846.4199"
       y2="7218.2402"><stop
         offset="0"
         style="stop-opacity:1; stop-color:#696767"
         id="stop4706" /><stop
         offset="0.45098"
         style="stop-opacity:1; stop-color:#696767"
         id="stop4708" /><stop
         offset="1"
         style="stop-opacity:1; stop-color:white"
         id="stop4710" /></linearGradient><linearGradient
       id="id3"
       gradientUnits="userSpaceOnUse"
       x1="5846.4502"
       y1="742.24402"
       x2="5846.4502"
       y2="7525.48"><stop
         offset="0"
         style="stop-opacity:1; stop-color:#D4D7D8"
         id="stop4713" /><stop
         offset="0.211765"
         style="stop-opacity:1; stop-color:#FAFCFA"
         id="stop4715" /><stop
         offset="0.388235"
         style="stop-opacity:1; stop-color:#9A9B9E"
         id="stop4717" /><stop
         offset="0.541176"
         style="stop-opacity:1; stop-color:#CBCDCE"
         id="stop4719" /><stop
         offset="0.701961"
         style="stop-opacity:1; stop-color:#666768"
         id="stop4721" /><stop
         offset="0.8"
         style="stop-opacity:1; stop-color:#383636"
         id="stop4723" /><stop
         offset="0.909804"
         style="stop-opacity:1; stop-color:#FEFEFE"
         id="stop4725" /><stop
         offset="1"
         style="stop-opacity:1; stop-color:#B8B8BB"
         id="stop4727" /></linearGradient><linearGradient
       id="id4"
       gradientUnits="userSpaceOnUse"
       x1="5846.46"
       y1="1116.13"
       x2="5846.46"
       y2="7151.5801"><stop
         offset="0"
         style="stop-opacity:1; stop-color:#FFD016"
         id="stop4730" /><stop
         offset="1"
         style="stop-opacity:1; stop-color:#FFDE16"
         id="stop4732" /></linearGradient></defs><g
     id="Layer_x0020_1"
     transform="matrix(0.98648001,0,0,0.98662624,-2434.0934,-745.26679)"><metadata
       id="CorelCorpID_0Corel-Layer" /><g
       id="_391474712"><g
         id="g4737"><path
           class="fil0"
           d="m 5846,761 c 1863,0 3374,1510 3374,3373 0,1863 -1511,3373 -3374,3373 C 3983,7507 2473,5997 2473,4134 2473,2271 3983,761 5846,761 Z m 0,288 c 1704,0 3085,1381 3085,3085 0,1703 -1381,3084 -3085,3084 -1703,0 -3084,-1381 -3084,-3084 0,-1704 1381,-3085 3084,-3085 z"
           id="path4739"
           style="fill:url(#id3)"
           inkscape:connector-curvature="0" /><path
           class="fil1"
           d="m 5846,1049 c 1704,0 3085,1381 3085,3085 0,1703 -1381,3084 -3085,3084 -1703,0 -3084,-1381 -3084,-3084 0,-1704 1381,-3085 3084,-3085 z m 0,67 c 1667,0 3018,1351 3018,3018 0,1666 -1351,3018 -3018,3018 -1666,0 -3017,-1352 -3017,-3018 0,-1667 1351,-3018 3017,-3018 z"
           id="path4741"
           style="fill:url(#id2)"
           inkscape:connector-curvature="0" /></g><g
         id="g4743"><path
           class="fil2"
           d="m 5846,7152 c -1666,0 -3017,-1351 -3017,-3018 0,-1667 1351,-3018 3017,-3018 1667,0 3018,1351 3018,3018 0,1667 -1351,3018 -3018,3018 z"
           id="path4745"
           style="fill:url(#id4)"
           inkscape:connector-curvature="0" /><path
           class="fil3"
           d="m 5846,7152 c -1666,0 -3017,-1351 -3017,-3018 0,-1667 1351,-3018 3017,-3018 1667,0 3018,1351 3018,3018 0,1667 -1351,3018 -3018,3018 z"
           id="path4747"
           inkscape:connector-curvature="0"
           style="fill:none" /><path
           class="fil4"
           d="m 3877,5300 93,-51 133,237 -218,122 c -35,-10 -74,-33 -116,-67 -41,-34 -75,-73 -100,-118 -32,-57 -48,-114 -48,-170 0,-56 17,-107 49,-153 33,-47 76,-85 128,-114 57,-32 114,-49 172,-50 58,-1 111,15 161,47 38,25 71,63 100,116 39,67 54,128 47,182 -7,54 -33,101 -77,140 l -82,-98 c 22,-23 35,-49 39,-79 4,-30 -3,-61 -21,-92 -27,-48 -64,-78 -111,-89 -46,-11 -99,0 -160,34 -64,36 -105,78 -121,125 -16,47 -12,94 15,140 13,23 30,44 52,62 22,18 45,32 67,41 l 69,-39 -71,-126 z m 385,604 74,97 c -42,22 -82,29 -122,23 -40,-6 -78,-26 -114,-60 -58,-55 -82,-114 -74,-177 6,-51 31,-99 75,-145 51,-54 106,-84 164,-88 58,-4 109,15 152,56 49,46 73,99 70,158 -2,60 -35,122 -100,188 l -218,-206 c -24,26 -36,53 -36,80 0,27 10,50 30,69 13,13 28,20 44,21 17,2 35,-4 55,-16 z m 89,-83 c 23,-26 35,-52 35,-76 0,-25 -9,-46 -26,-63 -19,-18 -42,-26 -67,-24 -26,3 -50,16 -72,40 l 130,123 z m 502,127 -51,81 -69,-44 -98,155 c -20,32 -31,51 -33,57 -2,6 -2,12 1,18 2,7 7,12 14,16 9,6 25,12 47,16 l -41,85 c -30,-5 -60,-17 -90,-36 -18,-11 -33,-25 -44,-40 -10,-15 -16,-30 -17,-44 0,-14 3,-31 11,-49 5,-13 19,-38 42,-74 l 106,-168 -47,-29 51,-81 47,29 48,-76 139,4 -86,136 70,44 z m 281,415 124,8 c 0,42 10,74 29,97 19,23 48,37 85,44 40,6 72,3 95,-11 23,-13 37,-31 41,-54 2,-15 0,-28 -7,-40 -7,-11 -20,-23 -40,-34 -14,-7 -45,-22 -95,-43 -64,-28 -107,-56 -130,-85 -32,-41 -44,-85 -36,-134 6,-32 20,-60 42,-85 22,-24 51,-41 87,-49 36,-9 78,-9 125,-2 77,13 133,40 166,81 33,41 46,90 38,148 l -125,-17 c 0,-33 -8,-57 -23,-74 -15,-17 -40,-28 -75,-34 -36,-6 -65,-4 -88,8 -15,7 -23,19 -26,35 -3,15 1,28 12,41 14,16 49,36 107,61 59,24 101,46 127,67 27,20 46,44 58,74 12,29 14,63 8,102 -6,36 -21,67 -46,95 -25,27 -57,46 -95,55 -39,9 -85,9 -139,0 -78,-13 -135,-41 -170,-85 -36,-43 -52,-99 -49,-169 z m 898,-167 1,95 -82,1 3,184 c 0,37 1,59 3,65 2,6 5,11 11,15 6,4 12,6 20,6 12,0 28,-4 49,-12 l 11,93 c -28,12 -59,19 -94,19 -22,0 -41,-3 -59,-10 -17,-7 -30,-16 -38,-28 -9,-11 -14,-27 -18,-46 -3,-14 -4,-43 -5,-85 l -3,-199 -55,1 -1,-96 55,0 -2,-90 119,-73 2,161 83,-1 z m 228,106 -110,6 c 2,-46 15,-83 39,-110 25,-28 66,-48 123,-61 52,-12 93,-15 121,-9 28,7 50,18 65,35 14,16 28,50 39,101 l 30,137 c 9,38 18,67 26,84 8,18 19,36 34,55 l -116,26 c -4,-7 -11,-17 -19,-31 -3,-7 -6,-11 -7,-13 -15,24 -33,44 -54,59 -20,15 -43,26 -69,32 -45,10 -84,6 -116,-13 -32,-18 -52,-47 -61,-84 -5,-25 -5,-49 3,-71 7,-22 20,-41 40,-57 19,-15 48,-31 86,-48 52,-23 88,-42 107,-55 l -3,-12 c -5,-23 -14,-38 -27,-45 -14,-7 -36,-7 -67,0 -21,5 -36,13 -46,24 -10,11 -16,28 -18,50 z m 179,59 c -14,8 -37,19 -67,34 -31,14 -51,26 -59,35 -13,14 -18,30 -14,46 4,17 13,29 28,39 15,9 32,11 51,7 21,-5 40,-17 56,-35 11,-14 18,-29 19,-45 0,-11 -3,-30 -9,-58 l -5,-23 z m 491,48 -109,50 -187,-414 101,-46 27,59 c 5,-36 12,-61 22,-76 10,-15 24,-26 42,-34 25,-11 52,-15 81,-12 l 10,111 c -24,-4 -44,-2 -60,5 -15,7 -26,17 -33,30 -7,13 -9,32 -5,57 4,25 22,73 54,143 l 57,127 z m 212,-662 54,78 -67,47 105,151 c 22,31 35,48 40,52 4,4 10,6 17,6 7,0 14,-2 20,-6 9,-7 20,-19 33,-38 l 62,71 c -16,26 -38,49 -67,69 -18,12 -36,21 -54,25 -19,4 -34,3 -48,-2 -13,-5 -26,-14 -40,-29 -11,-10 -28,-32 -52,-67 l -114,-163 -45,32 -55,-79 45,-31 -51,-74 57,-127 92,132 68,-47 z m 494,-49 97,-74 c 21,42 29,82 23,122 -6,40 -27,78 -61,114 -54,58 -113,82 -176,74 -51,-6 -99,-31 -145,-75 -55,-51 -84,-106 -88,-164 -4,-58 15,-109 56,-152 46,-49 99,-72 158,-70 59,2 122,36 188,100 l -207,218 c 27,24 54,36 81,36 27,0 50,-10 69,-29 13,-14 20,-29 21,-45 1,-17 -4,-35 -16,-55 z m -84,-89 c -26,-23 -51,-35 -76,-35 -25,0 -45,9 -62,26 -18,19 -26,42 -24,67 2,26 16,50 40,72 l 122,-130 z m 607,-447 -55,96 -58,-33 c 13,29 19,58 18,86 -1,29 -8,54 -21,76 -26,46 -66,74 -121,86 -55,11 -115,-2 -181,-39 -67,-38 -108,-83 -125,-134 -17,-52 -12,-101 16,-149 25,-45 65,-72 120,-84 l -196,-112 59,-104 544,311 z m -363,161 c 42,24 76,36 101,35 37,-1 64,-17 81,-47 14,-24 15,-50 4,-79 -11,-28 -36,-54 -77,-77 -46,-26 -83,-37 -112,-32 -30,5 -51,20 -66,46 -14,24 -16,51 -6,79 11,27 35,53 75,75 z"
           id="path4749"
           inkscape:connector-curvature="0"
           style="fill:#2863b1;fill-rule:nonzero" /><g
           id="g4751"><path
             class="fil5"
             d="m 5579,3915 c -4,206 18,247 -11,496 -18,157 -48,286 -82,431 -104,-30 -241,-169 -307,-269 -70,-107 -170,-358 -78,-429 40,-31 187,-3 283,-107 74,-77 44,-200 58,-325 10,-106 38,-220 86,-296 63,-94 161,-90 299,-71 105,14 215,47 307,81 195,78 322,168 458,311 24,25 60,76 82,110 26,47 48,78 46,147 -10,252 -269,605 -423,742 -157,139 -373,190 -590,174 22,-197 136,-376 249,-501 26,-29 48,-45 78,-73 24,-21 60,-47 88,-64 16,-10 81,-45 89,-59 -73,-35 -303,178 -362,255 -98,131 -172,260 -200,431 -42,-4 -74,-22 -111,-28 12,-70 39,-149 53,-221 18,-75 30,-155 40,-235 12,-110 32,-414 8,-513 l -34,-2 c -14,2 -20,9 -26,15 z m 6,-615 c -137,16 -183,98 -219,220 -86,284 22,431 -129,528 -122,79 -267,-7 -281,165 -14,174 103,349 197,462 64,73 149,134 257,188 211,108 512,110 746,34 139,-43 249,-124 328,-218 54,-64 96,-111 146,-186 56,-84 112,-178 155,-286 52,-129 76,-227 4,-347 -14,-25 -30,-45 -45,-66 -12,-18 -34,-45 -50,-59 -38,-41 -66,-72 -112,-110 -237,-199 -682,-368 -997,-325 z"
             id="path4753"
             inkscape:connector-curvature="0"
             style="fill:#2863b1" /><path
             class="fil5"
             d="m 5653,3112 c -48,-2 -64,-80 -76,-127 -55,-196 -233,-1154 52,-1181 357,-34 78,1253 24,1308 z m 0,-1393 c -418,59 -213,1070 -141,1350 16,59 48,139 119,127 100,-17 136,-215 160,-329 42,-192 243,-1201 -138,-1148 z"
             id="path4755"
             inkscape:connector-curvature="0"
             style="fill:#2863b1" /><path
             class="fil5"
             d="m 7214,2372 c -36,260 -225,621 -359,830 -40,61 -102,153 -155,198 -88,80 -134,-78 -118,-190 22,-157 183,-543 255,-695 52,-110 112,-212 180,-292 121,-139 223,-41 197,149 z m -96,-294 c -75,23 -115,78 -155,121 -42,41 -80,108 -114,163 -119,198 -259,560 -321,791 -20,75 -36,165 -10,245 18,59 72,139 154,100 147,-69 371,-494 450,-656 72,-151 206,-480 158,-658 -18,-67 -76,-132 -162,-106 z"
             id="path4757"
             inkscape:connector-curvature="0"
             style="fill:#2863b1" /><path
             class="fil5"
             d="m 6524,2095 c -22,234 -89,453 -155,661 -16,49 -92,272 -118,293 -82,71 -76,-307 -76,-317 -4,-155 -8,-1003 262,-952 101,18 95,212 87,315 z m -107,-397 c -327,66 -325,840 -313,1138 2,72 6,153 20,223 12,67 69,114 137,65 100,-73 227,-529 271,-701 30,-126 62,-281 68,-418 4,-143 -14,-342 -183,-307 z"
             id="path4759"
             inkscape:connector-curvature="0"
             style="fill:#2863b1" /><path
             class="fil5"
             d="m 4898,3592 c -32,43 -156,0 -192,-20 -105,-58 -169,-166 -207,-278 -16,-43 -48,-151 -38,-196 70,-43 267,106 325,157 34,33 76,86 102,141 22,47 44,149 10,196 z m -397,-580 c -88,18 -135,96 -113,200 35,157 101,327 229,419 143,102 357,106 370,-141 6,-104 -37,-182 -83,-243 -44,-60 -261,-266 -403,-235 z"
             id="path4761"
             inkscape:connector-curvature="0"
             style="fill:#2863b1" /><path
             class="fil5"
             d="m 5733,5206 c 102,0 229,-14 307,-61 40,-25 56,-88 8,-113 -30,-14 -116,6 -152,12 -277,45 -506,-26 -685,-194 -16,-16 -30,-30 -44,-49 -66,-83 -136,37 40,209 50,51 131,106 217,141 90,36 203,55 309,55 z"
             id="path4763"
             inkscape:connector-curvature="0"
             style="fill:#2863b1" /><path
             class="fil5"
             d="m 7543,3312 c 48,-14 80,-8 115,18 18,15 58,47 60,84 4,64 -269,227 -315,254 -56,32 -121,73 -187,98 -140,51 -193,-15 -148,-74 54,-73 208,-216 293,-278 48,-37 112,-81 182,-102 z m 36,-88 c -112,25 -259,133 -337,209 -34,32 -64,55 -98,87 -48,47 -141,141 -159,205 -40,137 85,169 195,130 148,-53 341,-177 462,-271 48,-37 156,-113 150,-211 -6,-85 -106,-171 -213,-149 z"
             id="path4765"
             inkscape:connector-curvature="0"
             style="fill:#2863b1" /><path
             class="fil5"
             d="m 5065,5028 c -40,80 82,206 136,241 26,19 48,35 79,53 104,66 268,113 417,113 98,0 293,-41 293,-127 0,-74 -90,-43 -149,-35 -252,43 -465,-4 -658,-157 -62,-51 -78,-100 -118,-88 z"
             id="path4767"
             inkscape:connector-curvature="0"
             style="fill:#2863b1" /><path
             class="fil5"
             d="m 5667,5490 c -267,2 -211,-25 -410,-64 12,172 179,219 314,143 26,-14 86,-63 96,-79 z"
             id="path4769"
             inkscape:connector-curvature="0"
             style="fill:#2863b1" /><path
             class="fil5"
             d="m 5713,4009 c 48,22 86,-41 183,-55 150,-19 56,110 64,132 22,29 156,-77 198,-6 27,47 101,-14 35,-71 -43,-39 -89,-27 -141,-11 0,-49 -6,-71 -44,-87 -64,-29 -159,10 -219,38 -26,13 -76,27 -76,60 z"
             id="path4771"
             inkscape:connector-curvature="0"
             style="fill:#2863b1" /></g><path
           class="fil6"
           d="m 3805,3778 c -36,119 -75,275 -75,394 l -314,-232 c 0,0 12,-435 117,-598 3,-4 6,-8 9,-12 0,0 139,192 320,277 0,0 -27,72 -57,171 z m -100,646 c -44,641 321,1264 321,1264 -607,-610 -610,-1453 -610,-1453 l 289,189 z"
           id="path4773"
           inkscape:connector-curvature="0"
           style="fill:#ffff36;fill-opacity:0.30980398" /><path
           class="fil7"
           style="fill:#ffffff"
           d="m 5848,1319 c 1323,0 2396,721 2396,1610 0,889 -1073,1609 -2396,1609 -1324,0 -2396,-720 -2396,-1609 0,-889 1072,-1610 2396,-1610 z"
           id="path4775"
           mask="url(#id0)"
           inkscape:connector-curvature="0" /></g></g></g></svg>