<?xml version="1.0" encoding="UTF-8" standalone="no"?>
<svg width="933" height="295" xmlns="http://www.w3.org/2000/svg">
  <metadata id="metadata8">image/svg+xml</metadata>
  <defs>
   <clipPath id="clipPath18" clipPathUnits="userSpaceOnUse">
    <path id="path16" d="m0,295h933v-295h-933l0,295z"/>
   </clipPath>
  </defs>
  <g>
   <title>Layer 1</title>
   <g id="g10">
    <g id="g12">
     <g clip-path="url(#clipPath18)" id="g14">
      <g id="g20">
       <path id="path22" d="m117.971001,111.009003v25.923996h-78.938999c-3.689301,0 -6.797302,1.266998 -9.320002,3.787003c-2.525299,2.526993 -3.785299,5.634995 -3.785299,9.322998c0,3.690002 1.26,6.843994 3.785299,9.466003c2.522699,2.621994 5.630701,3.931992 9.320002,3.931992h52.431995c5.433304,0 10.531006,1.020004 15.293007,3.059006c4.757996,2.039001 8.929993,4.804993 12.525993,8.300003c3.590004,3.496994 6.408005,7.623993 8.445,12.37999c2.041,4.763 3.059998,9.860001 3.059998,15.293015c0,5.438995 -1.018997,10.537994 -3.059998,15.293991c-2.036995,4.757996 -4.854996,8.932007 -8.445,12.525009c-3.596001,3.595993 -7.767998,6.406998 -12.525993,8.444992c-4.762001,2.042007 -9.859703,3.059998 -15.293007,3.059998h-78.646697v-25.923996h78.646697c3.881302,0 7.0867,-1.262009 9.612,-3.787994c2.523003,-2.520004 3.789001,-5.724014 3.789001,-9.612c0,-3.686005 -1.265999,-6.794006 -3.789001,-9.320007c-2.525299,-2.522003 -5.730698,-3.789001 -9.612,-3.789001h-52.431995c-5.438702,0 -10.536001,-1.016998 -15.290701,-3.056c-4.761301,-2.041 -8.885301,-4.852005 -12.3786,-8.447998c-3.497371,-3.591995 -6.26536,-7.764999 -8.302701,-12.524994c-2.03867,-4.758011 -3.06,-9.854004 -3.06,-15.292007c0,-5.434998 1.02133,-10.531998 3.06,-15.294006c2.03734,-4.755997 4.80533,-8.883995 8.302701,-12.37999c3.493299,-3.494003 7.617299,-6.262001 12.3786,-8.301003c4.7547,-2.040001 9.851999,-3.058998 15.290701,-3.058998l78.938999,0l0,0z" fill-rule="nonzero" fill="#3f6eb4"/>
      </g>
      <g id="g24">
       <path id="path26" d="m238.893616,216.454132v-39.613342c0,-5.434662 -1.017319,-10.531982 -3.056,-15.293335c-2.041351,-4.755981 -4.858673,-8.929321 -8.449341,-12.52533c-3.596039,-3.590668 -7.818649,-6.40799 -12.670639,-8.447998c-4.856033,-2.037323 -10.002731,-3.057312 -15.43869,-3.057312c-5.43866,0 -10.534683,1.019989 -15.290665,3.057312c-4.762665,2.040009 -8.936005,4.85733 -12.525345,8.447998c-3.595993,3.596008 -6.410629,7.769348 -8.44931,12.52533c-2.037354,4.761353 -3.058701,9.858673 -3.058701,15.293335c0,5.440002 1.021332,10.58667 3.058701,15.437347c2.038666,4.855988 4.853317,9.081329 8.44931,12.670654c3.589371,3.596008 7.76268,6.40802 12.525345,8.449341c4.755997,2.038666 9.852005,3.056 15.290665,3.056l39.61467,0zm-39.614685,-104.861336c9.127991,0 17.622681,1.701324 25.487976,5.097321c7.865356,3.398682 14.806702,8.058693 20.828033,13.981346c6.015991,5.925323 10.726654,12.815994 14.126678,20.679993c3.394653,7.865341 5.097321,16.363983 5.097321,25.489334v117.972015h-25.925323v-52.43335h-39.614685c-8.933319,0 -17.381317,-1.697327 -25.339981,-5.097321c-7.964005,-3.394669 -14.90535,-8.106659 -20.828003,-14.126678c-5.926682,-6.018646 -10.586685,-13.009338 -13.981339,-20.973328c-3.400009,-7.958679 -5.097351,-16.40799 -5.097351,-25.341339c0,-9.125336 1.697342,-17.623993 5.097351,-25.489319c3.394653,-7.864014 8.054657,-14.754669 13.981339,-20.679993c5.922653,-5.922668 12.863998,-10.582664 20.828003,-13.981346c7.958664,-3.396004 16.406662,-5.097321 25.339981,-5.097321" fill-rule="nonzero" fill="#3f6eb4"/>
      </g>
      <g id="g28">
       <path id="path30" d="m402.184265,111.009308v65.247986c0,8.934692 -1.702667,17.38269 -5.097351,25.341339c-3.401337,7.966675 -8.110657,14.957352 -14.126648,20.973343c-6.022675,6.022659 -12.96402,10.732025 -20.828003,14.126678c-7.865326,3.401337 -16.361328,5.098663 -25.489349,5.098663c-8.931976,0 -17.381317,-1.697342 -25.339996,-5.098663c-7.963989,-3.394653 -14.905334,-8.104004 -20.828003,-14.126678c-5.925323,-6.015991 -10.585327,-13.006653 -13.97998,-20.973343c-3.401337,-7.958649 -5.098694,-16.406647 -5.098694,-25.341339v-65.247986h25.924011v65.247986c0,5.440002 1.019989,10.588013 3.058685,15.437363c2.038696,4.858658 4.85199,9.081329 8.447998,12.671997c3.590698,3.594666 7.764008,6.409332 12.52536,8.447998c4.757294,2.038666 9.85199,3.058685 15.290649,3.058685c5.435974,0 10.583984,-1.02002 15.43869,-3.058685c4.853302,-2.038666 9.075989,-4.853333 12.671997,-8.447998c3.589294,-3.590668 6.406647,-7.813324 8.447998,-12.671997c2.038666,-4.849335 3.057312,-9.997345 3.057312,-15.437363l0,-65.247986l25.925323,0z" fill-rule="nonzero" fill="#3f6eb4"/>
      </g>
      <g id="g32">
       <path id="path34" d="m510.004395,216.454132c5.436035,0 10.533325,-1.017334 15.293335,-3.056c4.755981,-2.041321 8.929321,-4.853333 12.52533,-8.449341c3.593323,-3.589325 6.410706,-7.814667 8.447998,-12.670654c2.038696,-4.850677 3.059998,-9.99733 3.059998,-15.437347c0,-5.434662 -1.021301,-10.531982 -3.059998,-15.293335c-2.037292,-4.755981 -4.854675,-8.929321 -8.447998,-12.52533c-3.596008,-3.590668 -7.769348,-6.40799 -12.52533,-8.447998c-4.76001,-2.037323 -9.8573,-3.057312 -15.293335,-3.057312h-39.612v39.323975c0,5.440002 1.017334,10.58667 3.05603,15.437347c2.038635,4.855988 4.853333,9.081329 8.44928,12.670654c3.589355,3.596008 7.812012,6.40802 12.670715,8.449341c4.849304,2.038666 9.997314,3.056 15.435974,3.056m25.487976,-99.764c7.865356,3.398682 14.757385,8.058685 20.682678,13.981346c5.920044,5.925323 10.58136,12.815979 13.981323,20.679993c3.394714,7.865326 5.097351,16.363983 5.097351,25.489319c0,8.93335 -1.702637,17.38266 -5.097351,25.341339c-3.399963,7.963989 -8.061279,14.954681 -13.981323,20.973328c-5.925293,6.02002 -12.817322,10.731995 -20.682678,14.126678c-7.865295,3.399994 -16.359985,5.097321 -25.487976,5.097321c-8.932007,0 -17.381348,-1.697327 -25.339966,-5.097321c-7.96405,-3.394669 -14.957336,-8.106659 -20.973389,-14.126678c-6.022644,-6.018646 -10.731934,-13.009338 -14.126648,-20.973328c-3.401337,-7.958679 -5.098663,-16.40799 -5.098663,-25.341339v-117.68h25.926666v52.432007h39.612c9.127991,0 17.622681,1.701324 25.487976,5.097321" fill-rule="nonzero" fill="#3f6eb4"/>
      </g>
      <g id="g36">
       <path id="path38" d="m583.257996,72.632301v12.823997c0,1.760002 0.330017,3.410698 0.98999,4.952003c0.661011,1.540001 1.572998,2.890701 2.734009,4.054695c1.166016,1.162605 2.531982,2.0746 4.103027,2.734604c1.57196,0.659996 3.238953,0.989395 4.998962,0.989395c1.76001,0 3.408997,-0.329399 4.949036,-0.989395c1.542969,-0.660004 2.893005,-1.571999 4.055969,-2.734604c1.164001,-1.163994 2.075012,-2.514694 2.734985,-4.054695c0.660034,-1.541306 0.990051,-3.192001 0.990051,-4.952003c0,-1.761398 -0.330017,-3.426697 -0.990051,-4.997299c-0.659973,-1.572098 -1.570984,-2.940002 -2.734985,-4.102699c-1.162964,-1.164001 -2.513,-2.073402 -4.055969,-2.734703c-1.540039,-0.659996 -3.189026,-0.989296 -4.949036,-0.989296l-12.825989,0l0,0z" fill-rule="nonzero" fill="#3f6eb4"/>
      </g>
      <path id="path40" d="m607.267151,241.518402h-25.634644v-130.788025h25.634644l0,130.788025z" fill-rule="nonzero" fill="#3f6eb4"/>
      <g id="g42">
       <path id="path44" d="m694.887024,215.873993v25.922012h-12.817017c-8.932007,0 -17.382019,-1.697006 -25.340027,-5.097c-7.963989,-3.395004 -14.958008,-8.104004 -20.973999,-14.126999c-6.021973,-6.016006 -10.731995,-13.006012 -14.125977,-20.973999c-3.401978,-7.958008 -5.098999,-16.407013 -5.098999,-25.340012v-117.678894h25.927002v78.646896h52.429016v25.923996h-52.429016v13.108002c0,5.440002 1.016968,10.585999 3.055969,15.437012c2.038025,4.858994 4.853027,9.080994 8.449036,12.67099c3.588989,3.596008 7.812012,6.410004 12.670959,8.449005c4.848999,2.037003 9.997009,3.05899 15.436035,3.05899l12.817017,0l0,0z" fill-rule="nonzero" fill="#3f6eb4"/>
      </g>
      <g id="g46">
       <path id="path48" d="m411.589996,72.632301v12.823997c0,1.760002 0.32901,3.410698 0.989014,4.952003c0.66098,1.540001 1.572998,2.890701 2.734985,4.054695c1.165009,1.162605 2.532013,2.0746 4.10199,2.734604c1.572021,0.659996 3.239014,0.989395 4.999023,0.989395c1.759979,0 3.408997,-0.329399 4.949005,-0.989395c1.542999,-0.660004 2.893982,-1.571999 4.056,-2.734604c1.164001,-1.163994 2.074982,-2.514694 2.734985,-4.054695c0.660004,-1.541306 0.990997,-3.192001 0.990997,-4.952003c0,-1.761398 -0.330994,-3.426697 -0.990997,-4.997299c-0.660004,-1.572098 -1.570984,-2.940002 -2.734985,-4.102699c-1.162018,-1.164001 -2.513,-2.073402 -4.056,-2.734703c-1.540009,-0.659996 -3.189026,-0.989296 -4.949005,-0.989296l-12.825012,0l0,0z" fill-rule="nonzero" fill="#3f6eb4"/>
      </g>
      <path id="path50" d="m435.599213,241.518402h-25.634674v-130.788025h25.634674l0,130.788025z" fill-rule="nonzero" fill="#3f6eb4"/>
      <g id="g52">
       <path id="path54" d="m812.224426,216.241852c-15.216003,1.190674 -30.552002,-1.08667 -42.097351,-14.801331c-1.770691,-2.102661 -3.400024,-4.230682 -3.823975,-7.058685c-0.223999,-1.497314 -0.369385,-3.290649 0.853333,-4.046661c1.562622,-0.965332 2.587952,0.792023 3.515991,1.809357c3.457336,3.790649 7.305298,6.997314 11.811951,9.558655c9.958679,5.656006 20.578674,6.679977 31.656006,5.210648c1.444031,-0.191986 2.873352,-0.490646 4.314697,-0.705307c2.823975,-0.420013 6.575989,-1.717361 7.545349,1.901337c1.101318,4.112 -2.942688,5.311981 -5.992004,6.410629c-2.036011,0.73468 -4.253357,0.966675 -7.783997,1.721344" fill-rule="nonzero" fill="#aaacae"/>
      </g>
      <g id="g56">
       <path id="path58" d="m764.197205,205.432404c2.208008,-0.182678 3,1.517334 4.094666,2.601318c11.320007,11.208008 25.046692,14.872009 40.540039,13.048004c2.170654,-0.254669 4.313293,-0.751984 6.482666,-1.02533c1.914673,-0.242691 4.266663,-0.977341 5.242676,1.350677c1.033325,2.463989 -0.770691,4.114639 -2.669373,5.362671c-1.052002,0.691986 -2.252014,1.185318 -3.429321,1.656006c-14.50531,5.79599 -39.072021,-1.392029 -47.937317,-14.076019c-1.842712,-2.637329 -3.738708,-5.38266 -2.324036,-8.917328" fill-rule="nonzero" fill="#aaacae"/>
      </g>
      <g id="g60">
       <path id="path62" d="m801.441223,233.862915c-5.857361,5.633331 -11,8.485352 -17.737366,6.435989c-4.877319,-1.481308 -7.33197,-4.886658 -7.709351,-10.355988c7.965332,2.41333 15.714722,4.842651 25.446716,3.919983" fill-rule="nonzero" fill="#aaacae"/>
      </g>
      <g id="g64">
       <path id="path66" d="m831.439087,84.029213c-2.159973,-8.174652 -5.43866,-78.274663 15.919983,-80.050663c21.358704,-1.776 -2.61731,71.953342 -9.085327,81.602657c-2.497314,3.723999 -5.976013,1.701324 -6.834656,-1.551994" fill-rule="nonzero" fill="#ffdf31"/>
      </g>
      <g id="g68">
       <path id="path70" d="m833.68811,82.496002c-0.950684,-3.691994 -1.02533,-7.725342 -1.236023,-11.508003c-0.371948,-6.681335 -0.421326,-13.383999 -0.198669,-20.071987c0.249329,-7.525333 0.832031,-15.069344 2.118713,-22.493351c1.044006,-6.027981 2.462646,-12.198671 5.599976,-17.295991c-0.294678,0.47733 0.164001,-0.24001 0.257324,-0.37466c0.17865,-0.25734 0.358704,-0.51334 0.548035,-0.76401c0.157288,-0.20934 0.319946,-0.41333 0.485291,-0.616c0.082703,-0.10133 0.394714,-0.43466 -0.019958,0.018661c0.113281,-0.12399 0.223999,-0.249331 0.342651,-0.366671c0.203979,-0.20132 0.40802,-0.402659 0.615967,-0.59999c0.384033,-0.363999 0.06134,-0.074679 0.164001,-0.15601c0.216003,-0.16933 0.437378,-0.328 0.66272,-0.48399c0.121277,-0.08534 0.838623,-0.51201 0.402649,-0.27467c1.638672,-0.88933 3.258667,-1.21866 5.06134,-0.77466c1.409302,0.34666 2.555969,1.36 3.337341,2.71466c1.033325,1.78934 1.405334,3.62933 1.677307,5.764009c0.754639,5.93732 -0.037354,12.091981 -0.971985,17.962651c-1.144043,7.193359 -2.845337,14.293327 -4.801331,21.306667c-1.82135,6.529331 -3.874695,13.001343 -6.233337,19.35733c-0.992004,2.670685 -1.633362,4.329353 -2.706665,6.741333c-0.390686,0.878654 -0.794678,1.752007 -1.231995,2.608002c-0.165344,0.324005 -0.337341,0.64267 -0.510681,0.961327c-0.082703,0.150673 -0.176025,0.294678 -0.255981,0.446693c-0.250671,0.466637 0.373291,-0.325356 0.106628,-0.174683c-0.619995,0.353333 -0.41864,0.814667 -1.43335,0.361328c-0.882629,-0.394646 -1.506653,-1.399986 -1.779968,-2.287987c-0.906677,-2.946663 -5.156006,0.929321 -4.498657,3.066681c0.643982,2.09198 1.946655,4.201317 4.295959,4.586639c2.608032,0.426666 4.922668,-1.629333 6.29071,-3.609314c1.129333,-1.634666 1.971985,-3.484009 2.773315,-5.294678c2.619995,-5.914673 4.757324,-12.052002 6.718689,-18.212009c2.409302,-7.570652 4.51062,-15.25333 6.156006,-23.027981c1.533325,-7.241329 2.853333,-14.650671 2.878662,-22.075991c0.017334,-4.78268 -0.198669,-10.83868 -3.788025,-14.47868c-3.405334,-3.45067 -9.039978,-2.21333 -12.567993,0.35735c-5.26001,3.83066 -8.022644,10.37866 -9.817322,16.419981c-2.246704,7.56534 -3.281372,15.501339 -3.897339,23.349331c-0.625366,7.989349 -0.752014,16.014679 -0.538696,24.024017c0.1427,5.35199 0.325378,10.781311 1.136047,16.082642c0.095947,0.630676 0.201294,1.261353 0.359985,1.878693c0.763977,2.962646 5.057312,-0.898682 4.498657,-3.066681" fill-rule="nonzero" fill="#3f6eb4"/>
      </g>
      <g id="g72">
       <path id="path74" d="m794.113708,84.701721c-2.471985,-7.798653 -17.914673,-77.391981 5.709351,-79.417311c23.625305,-2.02534 5.949341,76.908003 2.687988,82.655989c-3.015991,5.314674 -6.612,2.393341 -8.397339,-3.238678" fill-rule="nonzero" fill="#ffdf31"/>
      </g>
      <g id="g76">
       <path id="path78" d="m796.362915,83.168404c-1.241333,-3.953316 -2.031982,-8.083984 -2.841309,-12.141335c-1.417358,-7.10001 -2.56134,-14.261318 -3.356018,-21.458649c-0.850647,-7.706669 -1.357361,-15.510681 -0.799988,-23.257351c0.229309,-3.18265 0.618652,-6.37866 1.465332,-9.45999c0.388,-1.41068 0.830627,-2.69067 1.290649,-3.67334c0.698669,-1.49332 0.741333,-1.590651 1.728027,-2.82532c0.045288,-0.054669 -0.240051,0.21599 0.218628,-0.23601c0.17334,-0.170671 0.34668,-0.34267 0.523987,-0.508c0.354675,-0.330669 -0.257324,0.15866 0.266663,-0.22133c0.257385,-0.18668 0.516052,-0.366671 0.788025,-0.53201c0,0 -0.007996,-0.01866 0.359985,-0.18799c0.2547,-0.11734 0.512024,-0.22534 0.774658,-0.32268c0.55603,-0.20934 0.772034,-0.25732 1.470703,-0.36533c1.838684,-0.28534 3.640015,-0.036 5.138672,0.952c3.539978,2.33467 4.798645,7.334669 5.477295,11.473339c1.054688,6.421331 0.916016,13.013342 0.49469,19.486662c-0.476013,7.287991 -1.41864,14.546658 -2.626648,21.74799c-1.002686,5.976006 -2.186707,11.918671 -3.64801,17.800018c-0.5,2.008003 -1.023987,4.014648 -1.645325,5.989319c-0.202698,0.638672 -0.429321,1.266663 -0.654663,1.898682c-0.100037,0.282654 0.41333,-0.547997 -0.001343,-0.024017c-0.249329,0.314667 -0.477356,0.787987 -0.638672,0.813316c-2.065369,0.336029 -3.514648,-4.141327 -3.950684,-5.442657c-0.449341,-1.337341 -2.43335,-0.166664 -3,0.370667c-1.002686,0.949341 -1.615967,2.347992 -1.167969,3.685333c0.799988,2.385345 2.102661,5.432007 4.675964,6.364006c2.580017,0.934662 5.072021,-1.044006 6.537354,-3.012016c1.221313,-1.639984 1.910645,-3.470642 2.512024,-5.402649c1.639954,-5.264015 2.786621,-10.693329 3.875977,-16.09201c3.002686,-14.880001 5.369324,-30.422672 4.358643,-45.638672c-0.355957,-5.37866 -1.094666,-11.71999 -4.421326,-16.18399c-3.053345,-4.09866 -8.105347,-5.116 -12.769348,-3.12666c-5.998657,2.55734 -9.119995,9.04268 -10.547974,15.04533c-1.848022,7.76935 -1.85199,15.886662 -1.427979,23.818661c0.747986,14.003998 2.932007,28.228001 6.497314,41.80267c0.169312,0.646667 0.343994,1.293327 0.544006,1.930656c0.924011,2.942665 5.167969,-0.934654 4.498657,-3.066673" fill-rule="nonzero" fill="#3f6eb4"/>
      </g>
      <g id="g80">
       <path id="path82" d="m855.296265,92.993317c2.489319,-11.261314 24.651978,-75.462677 39.534668,-64.644016c14.883972,10.820011 -21.640015,76.510693 -32.290649,81.305363c-4.241333,1.909325 -9.733337,-5.400024 -7.244019,-16.661354" fill-rule="nonzero" fill="#ffdf31"/>
      </g>
      <g id="g84">
       <path id="path86" d="m857.427673,92.698914c1.013367,-4.527985 2.557373,-8.965332 4.069336,-13.343994c2.34668,-6.79599 4.929321,-13.517326 7.813354,-20.10532c2.889343,-6.602661 6.150635,-13.45602 9.965332,-19.358669c0.864014,-1.335999 1.768005,-2.64801 2.731995,-3.91333c1.028015,-1.35202 1.359985,-1.768009 2.416016,-2.854679c0.410645,-0.422672 0.834656,-0.82666 1.269287,-1.22266c0.440002,-0.402681 0.262695,-0.27066 0.985352,-0.785341c1.018677,-0.723999 1.038696,-0.789339 2.288025,-1.196009c-0.005371,0.001339 0.43335,-0.108002 0.930664,-0.162661c0.59198,-0.06534 0.390686,-0.07468 0.950684,0.033329c1.003967,0.193361 1.403992,0.358671 2.218628,0.954681c1.337341,0.978668 2.205322,2.578669 2.570679,4.134668c1.189331,5.071991 -0.08136,10.675991 -1.47998,15.720001c-3.953369,14.258667 -10.937378,28.067993 -18.670715,40.527977c-1.737305,2.798683 -3.562622,5.549355 -5.506653,8.210663c-0.823975,1.129333 -1.671997,2.241333 -2.554626,3.32666c-0.171997,0.212013 -0.34668,0.422668 -0.521362,0.633331c-0.109314,0.132019 -0.619995,0.726677 -0.421326,0.498688c0.223999,-0.257317 -0.333313,0.372009 -0.401306,0.446663c-0.186707,0.202667 -0.373352,0.403984 -0.562683,0.603996c-0.350708,0.366669 -0.706665,0.726654 -1.075989,1.074684c-0.32135,0.302666 -1.042664,0.890656 -0.573364,0.53067c-0.277344,0.213318 -0.56665,0.409325 -0.848022,0.61731c-0.085327,0.062675 -0.614624,0.335999 -0.194641,0.128021c0.460022,-0.226685 -0.286682,0.109306 -0.286682,0.109306c-3.081299,0.02533 -4.687988,-3.757317 -5.234619,-6.422668c-0.552002,-2.694641 -0.437378,-5.5 0.12262,-8.185333c0.793335,-3.806641 -3.733337,-1.953308 -4.262634,0.588013c-1.062683,5.096008 -1.373352,11.090668 1.542664,15.690666c1.769348,2.789345 4.750671,4.511993 7.945313,2.946663c4.575989,-2.241333 8.001343,-7.377319 10.865356,-11.390663c9.465332,-13.257347 17.238647,-28.246666 22.693298,-43.590668c2.280029,-6.412018 4.406677,-13.35733 4.400024,-20.226681c-0.00531,-4.621307 -1.145325,-10.073328 -6.044006,-11.821318c-4.954651,-1.768011 -9.924011,2.574678 -12.954651,5.96933c-5.018677,5.620001 -8.733337,12.379999 -12.057373,19.098658c-6.430664,12.998692 -11.907959,26.85199 -15.762634,40.849335c-0.225342,0.820007 -0.442688,1.644005 -0.627991,2.47467c-0.849365,3.798676 3.697327,1.93866 4.262634,-0.588013" fill-rule="nonzero" fill="#3f6eb4"/>
      </g>
      <g id="g88">
       <path id="path90" d="m884.651794,123.843323c2.194702,-3.762665 28.752014,-31.886665 38.578674,-25.579994c9.828003,6.305328 4.82135,10.955994 2.330688,13.508003c-4.414673,4.521332 -26.134705,18.957336 -34.113342,20.070679c-8.140015,1.135986 -8.990662,-4.236023 -6.796021,-7.998688" fill-rule="nonzero" fill="#ffdf31"/>
      </g>
      <g id="g92">
       <path id="path94" d="m886.506531,124.227722c-0.509338,0.84668 -0.142639,0.245331 0.150696,-0.146675c0.306641,-0.410637 0.634644,-0.803986 0.961304,-1.197327c0.077332,-0.093323 0.597351,-0.702667 0.357361,-0.425323c-0.205322,0.23999 0.32135,-0.364006 0.437317,-0.491997c0.534668,-0.601318 1.078674,-1.193329 1.627991,-1.779999c2.573364,-2.745331 5.269348,-5.37735 8.065369,-7.894653c3.029297,-2.728027 6.190674,-5.317345 9.570618,-7.603996c2.710693,-1.833344 5.701355,-3.697365 8.926697,-4.446693c3.599976,-0.834656 6.41864,0.813354 8.798645,3.630684c0.596008,0.706665 1.170715,1.579987 1.332031,2.503998c0.052002,0.29599 0.059998,0.544006 0.037292,0.841339c0.012024,-0.153351 -0.23999,0.82132 -0.101318,0.402649c-0.171997,0.516022 -0.35199,0.664001 -0.889343,1.313354c0.344055,-0.414673 -0.338623,0.359985 -0.425293,0.450645c-0.233337,0.245331 -0.470703,0.490662 -0.710693,0.72934c-2.203979,2.187996 -4.783997,3.948006 -7.534668,5.85733c-3.914673,2.720001 -7.945313,5.284004 -12.083984,7.650673c-3.677307,2.103996 -7.711975,4.494652 -11.88269,5.450676c-1.975952,0.451996 -4.97467,0.742661 -6.519958,-0.910675c-1.101379,-1.179993 -0.773376,-2.752014 -0.117371,-3.93335c0.506714,-0.91333 0.76001,-2.614655 -0.534668,-2.97467c-1.322632,-0.367981 -2.643982,1.250671 -3.174622,2.205345c-2.154663,3.881325 -2.184021,9.372017 2.82666,10.82267c4.484009,1.297318 9.41333,-0.906693 13.374634,-2.82402c9.137329,-4.422668 18.237366,-10.063995 25.977356,-16.658653c2.771973,-2.361336 5.726685,-5.424011 6.278687,-9.166664c0.693298,-4.697357 -3.944031,-9.430656 -8.217346,-10.632019c-3.361328,-0.945313 -7.178711,0.5 -10.161377,1.97467c-4.261292,2.105347 -8.139954,4.912018 -11.813293,7.906677c-4.110657,3.35199 -8.014709,6.952003 -11.694702,10.77066c-2.333313,2.422668 -4.828003,4.906685 -6.570618,7.806671c-0.540039,0.899994 -0.736023,2.62265 0.534668,2.975983c1.349304,0.374657 2.609314,-1.26532 3.174622,-2.206673" fill-rule="nonzero" fill="#3f6eb4"/>
      </g>
      <g id="g96">
       <path id="path98" d="m752.219849,121.072021c-4.238647,0.842651 -22.40802,0.510651 -27.541321,-31.040009c0,0 -0.421326,-12.79068 18.82666,0.322655c19.249329,13.113342 14.526672,29.562683 8.714661,30.717354" fill-rule="nonzero" fill="#ffdf31"/>
      </g>
      <g id="g100">
       <path id="path102" d="m753.018677,118.469727c-1.729309,0.332001 -2.610657,0.269325 -4.229309,0.048004c-2.317383,-0.314674 -4.568054,-1.05069 -6.608032,-2.197357c-7.210632,-4.050667 -11.252014,-11.911995 -13.447998,-19.604004c-0.398682,-1.394653 -0.746643,-2.803993 -1.053345,-4.221306c-0.187988,-0.872017 -0.359985,-1.746674 -0.517334,-2.623993c-0.059998,-0.328003 -0.077332,-0.709351 -0.177307,-1.026672c-0.244019,-0.768005 -0.038696,0.057312 -0.044006,0.203979c0.013306,-0.385307 0.055969,-0.757317 0.102661,-1.139977c0.048035,-0.388 -0.154663,0.667999 -0.015991,0.100006c0.038635,-0.156006 0.094666,-0.306671 0.134644,-0.461327c0.146667,-0.577332 -0.049316,0.212006 -0.036011,0.062653c0.008057,-0.095985 0.345337,-0.832001 0.122681,-0.278664c-0.274658,0.687988 0.119995,-0.262657 0.169373,-0.188019c-0.432007,-0.663971 -0.313354,0.769348 -0.176025,0.230682c0.059998,-0.23468 -0.105347,-0.174652 -0.165344,0.129326c0.037354,-0.189331 0.384033,-0.253326 0.717346,-0.339996c3.157349,-0.830666 7.650696,1.70401 10.425354,3.339996c5.169312,3.049347 10.149292,6.845337 13.437317,11.947998c2.246643,3.485321 3.771973,7.645325 3.307983,11.843994c-0.090637,0.814667 -0.190674,1.254669 -0.451965,2.09201c-0.053345,0.174644 -0.114685,0.346649 -0.181335,0.515991c-0.16803,0.429344 0.15863,-0.350655 -0.030701,0.051994c-0.077332,0.164001 -0.64801,1.140015 -0.23999,0.521332c-0.169312,0.257324 -0.349304,0.505341 -0.545349,0.742683c0.425354,-0.511993 -0.026672,-0.03067 -0.225342,0.166656c0.417358,-0.414673 -0.267944,0.058693 0.097351,-0.078667c-0.481323,0.180016 -0.194641,0.124016 -0.369324,0.162689c-1.385315,0.311981 -2.541321,1.541321 -2.930664,2.895996c-0.268005,0.934662 -0.078674,2.626656 1.333313,2.307983c7.81604,-1.758675 9.250671,-12.498665 7.345337,-18.859993c-1.657349,-5.53067 -5.2453,-10.167999 -9.596008,-13.885345c-4.455994,-3.805336 -10.453308,-8.013344 -16.405334,-8.94931c-5.462646,-0.858673 -10.261292,3.330658 -10.350647,8.867981c-0.042664,2.549347 0.854675,5.329346 1.501343,7.777336c0.790649,2.990662 1.783997,5.952003 3.06665,8.77066c1.922668,4.227997 4.592041,8.216003 8.146667,11.247993c4.298706,3.666687 10.575989,6.128014 16.291992,5.03067c1.384033,-0.265327 2.549377,-1.570656 2.930664,-2.896004c0.278687,-0.970673 0.07605,-2.578667 -1.333313,-2.307983" fill-rule="nonzero" fill="#3f6eb4"/>
      </g>
      <g id="g104">
       <path id="path106" d="m867.885193,136.374664c-15.268005,-28.857338 -57.424011,-38.556007 -72.233337,-35.061348c-10.449341,2.465332 -12.786621,24.158661 -12.383972,37.13868c-0.900024,6.804031 -7.660034,10.745331 -17.129333,11.093323c-16.250671,0.596008 5.097351,67.337341 65.859985,45.982666c17.074646,-6.001312 42.949341,-45.803986 35.886658,-59.15332" fill-rule="nonzero" fill="#ffdf31"/>
      </g>
      <g id="g108">
       <path id="path110" d="m871.244934,136.443176c-6.690674,-12.487976 -18.280029,-21.519989 -30.881348,-27.557304c-11.377319,-5.453339 -24.122681,-8.985352 -36.768005,-9.426674c-4.421326,-0.154655 -9.950684,-0.236015 -13.806641,2.254669c-4.962708,3.206673 -6.985352,9.866676 -8.193359,15.310646c-1.515991,6.834686 -1.638672,13.656013 -1.789368,20.61068c-0.069275,3.244003 -2.147949,6.097321 -4.781311,7.846664c-3.231995,2.149338 -6.911987,2.541336 -10.665344,2.887985c-2.559998,0.23735 -4.701294,1.193375 -5.877319,3.562683c-1.135986,2.293335 -1.17865,5.006653 -0.919983,7.501343c0.798645,7.721313 4.572021,15.197327 9.266663,21.26532c6.285339,8.123993 14.882629,14.171997 24.637329,17.377319c13.225342,4.345337 27.542664,3.405319 40.685303,-0.720001c11.598694,-3.639969 20.102722,-13.429321 26.897339,-23.09198c3.740051,-5.318649 7.066711,-10.988022 9.654663,-16.959991c2.049377,-4.730682 3.901367,-9.970657 3.822693,-15.195999c-0.029358,-1.949341 -0.390686,-3.918671 -1.281311,-5.665344c-0.834717,-1.637329 -7.400024,-1.470642 -6.720032,-0.137329c1.889343,3.70401 1.098694,8.364014 0.104004,12.210663c-1.432007,5.534668 -3.898682,10.822678 -6.706665,15.782669c-5.793335,10.23465 -13.463989,20.637329 -23.255981,27.38266c-4.906677,3.380005 -10.958679,4.861343 -16.745361,5.925323c-5.422668,0.997345 -11.361328,1.249329 -16.458679,0.424011c-9.318665,-1.506683 -18.018616,-6.398682 -24.553284,-13.277344c-5.401367,-5.68399 -9.822693,-12.833298 -11.722656,-20.494659c-0.937378,-3.779999 -2.009338,-10.978668 1.714661,-13.245331c0.003967,-0.001328 1.130615,-0.507996 0.593323,-0.26001c0.590637,-0.271988 -0.545349,-0.017319 0.126648,-0.019989c0.885315,-0.002655 1.781311,-0.09201 2.659973,-0.190659c3.666687,-0.405334 7.373352,-1.272003 10.549377,-3.213333c2.557312,-1.562668 4.599976,-3.804016 5.498657,-6.708008c0.859985,-2.781342 0.315979,-6.139999 0.447998,-9.036011c0.299988,-6.610657 1.109314,-13.417328 3.398682,-19.662659c1.65863,-4.52533 4.314636,-9.042656 9.421326,-9.837334c1.297302,-0.202675 3.247986,-0.272003 4.903992,-0.235992c2.26532,0.049347 4.189331,0.231987 6.802673,0.608002c5.039978,0.723999 10.856018,2.279999 15.985352,4.125336c12.078613,4.345345 23.689331,11.441315 31.807983,21.517326c2.065308,2.56134 3.874634,5.306671 5.427979,8.205322c0.876038,1.633331 7.410706,1.426666 6.720032,0.137329" fill-rule="nonzero" fill="#3f6eb4"/>
      </g>
      <g id="g112">
       <path id="path114" d="m793.269592,195.563171c5.665283,-19.194672 7.761292,-38.982666 6.254639,-58.935974c-0.067993,-0.888 -3.954651,-0.164001 -3.864014,1.034668c1.497375,19.814651 -0.594666,39.461304 -6.218628,58.515991c-0.289368,0.981323 3.507996,0.471985 3.828003,-0.614685" fill-rule="nonzero" fill="#3f6eb4"/>
      </g>
      <g id="g116">
       <path id="path118" d="m803.491577,198.819611c2.949341,-18.119995 13.957336,-33.742676 30.258667,-42.289337c2.283997,-1.197327 -1.200012,-1.494659 -2.332031,-0.901337c-16.909302,8.865356 -28.694641,24.858658 -31.769287,43.750656c-0.209351,1.282654 3.65332,0.605362 3.842651,-0.559998" fill-rule="nonzero" fill="#3f6eb4"/>
      </g>
      <g id="g120">
       <path id="path122" d="m806.501831,143.297302c2.381348,-1.294647 5.038635,-2.782654 7.714661,-3.333313c6.296021,-1.296021 7.798645,2.106659 4.804016,7.056c-1.083984,1.791992 2.701294,1.235992 3.399963,0.552002c1.585388,-1.552002 8.646667,-2.692017 8.793335,0.081329c0.078674,1.465332 3.952026,0.62265 3.864014,-1.036011c-0.187988,-3.557343 -3.397339,-5.305328 -6.735962,-5.130676c-3.701355,0.193359 -6.569336,2.766693 -9.080017,5.223999c1.133301,0.184021 2.266663,0.369354 3.399963,0.553345c1.993347,-3.29599 3.752014,-8.936005 -1.345337,-10.486664c-4.935974,-1.501343 -12.303955,2.38266 -16.42395,4.622681c-2.324036,1.26265 -0.201355,2.881317 1.609314,1.897308" fill-rule="nonzero" fill="#3f6eb4"/>
      </g>
     </g>
    </g>
   </g>
  </g>
 </svg>
