<?xml version="1.0" standalone="no"?>
<!DOCTYPE svg PUBLIC "-//W3C//DTD SVG 20010904//EN"
 "http://www.w3.org/TR/2001/REC-SVG-20010904/DTD/svg10.dtd">
<svg version="1.0" xmlns="http://www.w3.org/2000/svg"
 viewBox="0 0 375.000000 175.000000" preserveAspectRatio="none">
<g transform="translate(0.000000,175.000000) scale(0.100000,-0.100000)"
fill="#173968" stroke="none">
<path d="M3732 1676 c-7 -19 -35 -55 -62 -79 -186 -168 -697 -298 -1355 -347
-180 -13 -710 -13 -890 0 -736 55 -1290 214 -1406 404 -19 30 -19 16 -19 -784
0 -800 0 -814 19 -784 116 190 670 349 1406 404 180 13 710 13 890 0 765 -57
1325 -225 1416 -425 18 -39 19 -23 19 803 0 463 -1 842 -3 842 -2 0 -9 -16
-15 -34z"/>
</g>
</svg>
